<svg width="900" height="520" viewBox="0 0 900 520" xmlns="http://www.w3.org/2000/svg" style="font-family: -apple-system, BlinkMacSystemFont, 'Segoe UI', Helvetica, Arial, sans-serif; background: #fff;">

  <text x="450" y="28" text-anchor="middle" font-size="16" font-weight="500" fill="#2C2C2A">Job market intelligence platform — architecture</text>

  <!-- DATA SOURCES -->
  <text x="68" y="58" text-anchor="middle" font-size="12" fill="#5F5E5A">Data sources</text>
  <rect x="20" y="68" width="96" height="30" rx="4" fill="#E6F1FB" stroke="#185FA5" stroke-width="0.5"/>
  <text x="68" y="87" text-anchor="middle" font-size="11" fill="#0C447C" dominant-baseline="central">O*NET 30.2</text>
  <rect x="20" y="104" width="96" height="30" rx="4" fill="#E6F1FB" stroke="#185FA5" stroke-width="0.5"/>
  <text x="68" y="123" text-anchor="middle" font-size="11" fill="#0C447C" dominant-baseline="central">BLS API</text>
  <rect x="20" y="140" width="96" height="30" rx="4" fill="#E6F1FB" stroke="#185FA5" stroke-width="0.5"/>
  <text x="68" y="159" text-anchor="middle" font-size="11" fill="#0C447C" dominant-baseline="central">FRED API</text>
  <rect x="20" y="176" width="96" height="30" rx="4" fill="#E6F1FB" stroke="#185FA5" stroke-width="0.5"/>
  <text x="68" y="195" text-anchor="middle" font-size="11" fill="#0C447C" dominant-baseline="central">Adzuna API</text>
  <rect x="20" y="212" width="96" height="30" rx="4" fill="#E6F1FB" stroke="#185FA5" stroke-width="0.5"/>
  <text x="68" y="231" text-anchor="middle" font-size="11" fill="#0C447C" dominant-baseline="central">ACS Census</text>
  <rect x="20" y="248" width="96" height="30" rx="4" fill="#E6F1FB" stroke="#185FA5" stroke-width="0.5"/>
  <text x="68" y="267" text-anchor="middle" font-size="11" fill="#0C447C" dominant-baseline="central">Kaggle (×3)</text>

  <!-- INGESTION -->
  <text x="195" y="58" text-anchor="middle" font-size="12" fill="#5F5E5A">Ingestion</text>
  <rect x="148" y="68" width="96" height="72" rx="6" fill="#E1F5EE" stroke="#0F6E56" stroke-width="0.5"/>
  <text x="196" y="96" text-anchor="middle" font-size="13" font-weight="500" fill="#085041" dominant-baseline="central">Python</text>
  <text x="196" y="116" text-anchor="middle" font-size="11" fill="#0F6E56" dominant-baseline="central">API clients</text>
  <rect x="148" y="150" width="96" height="44" rx="6" fill="#E1F5EE" stroke="#0F6E56" stroke-width="0.5"/>
  <text x="196" y="176" text-anchor="middle" font-size="13" font-weight="500" fill="#085041" dominant-baseline="central">→ Parquet</text>

  <!-- Arrows: sources → ingestion -->
  <line x1="116" y1="83" x2="146" y2="83" stroke="#888780" stroke-width="0.5" marker-end="url(#ah)"/>
  <line x1="116" y1="119" x2="146" y2="100" stroke="#888780" stroke-width="0.5" marker-end="url(#ah)"/>
  <line x1="116" y1="155" x2="146" y2="108" stroke="#888780" stroke-width="0.5" marker-end="url(#ah)"/>
  <line x1="116" y1="191" x2="146" y2="116" stroke="#888780" stroke-width="0.5" marker-end="url(#ah)"/>
  <line x1="116" y1="227" x2="146" y2="124" stroke="#888780" stroke-width="0.5" marker-end="url(#ah)"/>
  <line x1="116" y1="263" x2="146" y2="132" stroke="#888780" stroke-width="0.5" marker-end="url(#ah)"/>
  <line x1="196" y1="140" x2="196" y2="148" stroke="#888780" stroke-width="0.5" marker-end="url(#ah)"/>

  <!-- STORAGE -->
  <text x="324" y="58" text-anchor="middle" font-size="12" fill="#5F5E5A">Storage</text>
  <rect x="276" y="68" width="96" height="56" rx="6" fill="#FAECE7" stroke="#993C1D" stroke-width="0.5"/>
  <text x="324" y="90" text-anchor="middle" font-size="13" font-weight="500" fill="#712B13" dominant-baseline="central">GCS</text>
  <text x="324" y="110" text-anchor="middle" font-size="11" fill="#993C1D" dominant-baseline="central">Data lake</text>
  <rect x="276" y="134" width="96" height="56" rx="6" fill="#F1EFE8" stroke="#5F5E5A" stroke-width="0.5"/>
  <text x="324" y="156" text-anchor="middle" font-size="13" font-weight="500" fill="#444441" dominant-baseline="central">DuckDB</text>
  <text x="324" y="176" text-anchor="middle" font-size="11" fill="#5F5E5A" dominant-baseline="central">Dev warehouse</text>

  <line x1="244" y1="172" x2="274" y2="96" stroke="#888780" stroke-width="0.5" marker-end="url(#ah)"/>
  <line x1="324" y1="124" x2="324" y2="132" stroke="#888780" stroke-width="0.5" marker-end="url(#ah)"/>

  <!-- TRANSFORMATION -->
  <text x="540" y="58" text-anchor="middle" font-size="12" fill="#5F5E5A">Transformation — dbt (medallion architecture)</text>

  <rect x="410" y="68" width="100" height="44" rx="4" fill="#F1EFE8" stroke="#5F5E5A" stroke-width="0.5"/>
  <text x="460" y="84" text-anchor="middle" font-size="13" font-weight="500" fill="#444441" dominant-baseline="central">Bronze</text>
  <text x="460" y="102" text-anchor="middle" font-size="11" fill="#5F5E5A" dominant-baseline="central">32 staging</text>

  <rect x="525" y="68" width="100" height="44" rx="4" fill="#EEEDFE" stroke="#534AB7" stroke-width="0.5"/>
  <text x="575" y="84" text-anchor="middle" font-size="13" font-weight="500" fill="#3C3489" dominant-baseline="central">Silver</text>
  <text x="575" y="102" text-anchor="middle" font-size="11" fill="#534AB7" dominant-baseline="central">21 models</text>

  <rect x="640" y="68" width="100" height="44" rx="4" fill="#E1F5EE" stroke="#0F6E56" stroke-width="0.5"/>
  <text x="690" y="84" text-anchor="middle" font-size="13" font-weight="500" fill="#085041" dominant-baseline="central">Gold</text>
  <text x="690" y="102" text-anchor="middle" font-size="11" fill="#0F6E56" dominant-baseline="central">8 analytics</text>

  <line x1="372" y1="162" x2="408" y2="90" stroke="#888780" stroke-width="0.5" marker-end="url(#ah)"/>
  <line x1="510" y1="90" x2="523" y2="90" stroke="#888780" stroke-width="0.5" marker-end="url(#ah)"/>
  <line x1="625" y1="90" x2="638" y2="90" stroke="#888780" stroke-width="0.5" marker-end="url(#ah)"/>

  <!-- Silver breakdown -->
  <text x="575" y="140" text-anchor="middle" font-size="11" fill="#5F5E5A">Silver layer detail</text>
  <rect x="410" y="152" width="110" height="28" rx="4" fill="#EEEDFE" stroke="#534AB7" stroke-width="0.5"/>
  <text x="465" y="170" text-anchor="middle" font-size="11" fill="#3C3489" dominant-baseline="central">9 dimensions</text>
  <rect x="530" y="152" width="110" height="28" rx="4" fill="#EEEDFE" stroke="#534AB7" stroke-width="0.5"/>
  <text x="585" y="170" text-anchor="middle" font-size="11" fill="#3C3489" dominant-baseline="central">5 intermediates</text>
  <rect x="650" y="152" width="90" height="28" rx="4" fill="#EEEDFE" stroke="#534AB7" stroke-width="0.5"/>
  <text x="695" y="170" text-anchor="middle" font-size="11" fill="#3C3489" dominant-baseline="central">4 fact tables</text>

  <!-- Gold models -->
  <text x="575" y="210" text-anchor="middle" font-size="11" fill="#5F5E5A">Gold layer models</text>
  <rect x="410" y="222" width="142" height="26" rx="4" fill="#E1F5EE" stroke="#0F6E56" stroke-width="0.5"/>
  <text x="481" y="239" text-anchor="middle" font-size="10" fill="#085041" dominant-baseline="central">Market snapshot + trends</text>
  <rect x="560" y="222" width="142" height="26" rx="4" fill="#E1F5EE" stroke="#0F6E56" stroke-width="0.5"/>
  <text x="631" y="239" text-anchor="middle" font-size="10" fill="#085041" dominant-baseline="central">Economic dashboard</text>
  <rect x="410" y="254" width="142" height="26" rx="4" fill="#E1F5EE" stroke="#0F6E56" stroke-width="0.5"/>
  <text x="481" y="271" text-anchor="middle" font-size="10" fill="#085041" dominant-baseline="central">Role analysis + top skills</text>
  <rect x="560" y="254" width="142" height="26" rx="4" fill="#E1F5EE" stroke="#0F6E56" stroke-width="0.5"/>
  <text x="631" y="271" text-anchor="middle" font-size="10" fill="#085041" dominant-baseline="central">Skills demand + gap</text>
  <rect x="410" y="286" width="142" height="26" rx="4" fill="#E1F5EE" stroke="#0F6E56" stroke-width="0.5"/>
  <text x="481" y="303" text-anchor="middle" font-size="10" fill="#085041" dominant-baseline="central">Metro comparison</text>

  <!-- VISUALIZATION -->
  <text x="196" y="310" text-anchor="middle" font-size="12" fill="#5F5E5A">Visualization</text>
  <rect x="148" y="322" width="96" height="52" rx="6" fill="#FAECE7" stroke="#993C1D" stroke-width="0.5"/>
  <text x="196" y="342" text-anchor="middle" font-size="13" font-weight="500" fill="#712B13" dominant-baseline="central">Streamlit</text>
  <text x="196" y="362" text-anchor="middle" font-size="11" fill="#993C1D" dominant-baseline="central">Plotly charts</text>
  <line x1="408" y1="299" x2="246" y2="340" stroke="#888780" stroke-width="0.5" marker-end="url(#ah)"/>

  <!-- Dashboard pages -->
  <rect x="20" y="322" width="118" height="52" rx="4" fill="#FAECE7" stroke="#993C1D" stroke-width="0.5"/>
  <text x="79" y="340" text-anchor="middle" font-size="10" fill="#712B13" dominant-baseline="central">4 dashboard pages</text>
  <text x="79" y="355" text-anchor="middle" font-size="9" fill="#993C1D" dominant-baseline="central">Market | Roles | Metro</text>
  <text x="79" y="367" text-anchor="middle" font-size="9" fill="#993C1D" dominant-baseline="central">| Skills</text>
  <line x1="146" y1="348" x2="140" y2="348" stroke="#888780" stroke-width="0.5" marker-end="url(#ah)"/>

  <!-- ORCHESTRATION + IAC -->
  <rect x="350" y="380" width="390" height="64" rx="10" fill="none" stroke="#888780" stroke-width="0.5" stroke-dasharray="4 3"/>
  <text x="545" y="398" text-anchor="middle" font-size="11" fill="#5F5E5A">Infrastructure and orchestration</text>

  <rect x="370" y="410" width="110" height="28" rx="4" fill="#FBEAF0" stroke="#993556" stroke-width="0.5"/>
  <text x="425" y="428" text-anchor="middle" font-size="11" font-weight="500" fill="#72243E" dominant-baseline="central">Prefect</text>

  <rect x="500" y="410" width="110" height="28" rx="4" fill="#FAEEDA" stroke="#854F0B" stroke-width="0.5"/>
  <text x="555" y="428" text-anchor="middle" font-size="11" font-weight="500" fill="#633806" dominant-baseline="central">Terraform</text>

  <rect x="630" y="410" width="90" height="28" rx="4" fill="#F1EFE8" stroke="#5F5E5A" stroke-width="0.5"/>
  <text x="675" y="428" text-anchor="middle" font-size="11" font-weight="500" fill="#444441" dominant-baseline="central">1Password</text>

  <!-- Legend -->
  <text x="450" y="480" text-anchor="middle" font-size="11" fill="#888780">APIs → Python clients → Parquet → GCS → DuckDB → dbt (bronze → silver → gold) → Streamlit</text>
  <text x="450" y="500" text-anchor="middle" font-size="10" fill="#B4B2A9">1.48M+ job postings · 886 occupations · 25 economic indicators · 15 metro areas</text>

  <defs>
    <marker id="ah" viewBox="0 0 10 10" refX="8" refY="5" markerWidth="5" markerHeight="5" orient="auto-start-reverse">
      <path d="M2 1L8 5L2 9" fill="none" stroke="#888780" stroke-width="1.5" stroke-linecap="round" stroke-linejoin="round"/>
    </marker>
  </defs>
</svg>
